<?xml version="1.0"?>
<!DOCTYPE svg PUBLIC "-//W3C//DTD SVG 1.1//EN" "http://www.w3.org/Graphics/SVG/1.1/DTD/svg11.dtd">
<svg width="1127.6123682mm" height="174.510046435mm" viewBox="0 0 1127.6123682 174.510046435" xmlns="http://www.w3.org/2000/svg" version="1.1">
<g id="Cut" transform="translate(115.037759,78.322677) scale(1,-1)">
<path id="Cut_f0000"  d="M 799.908999438 54.5546049083 L 799.908999438 54.5546049083 L 812.615114478 54.5546049083 L 812.615114478 54.5546049083 L 799.908999438 54.5546049083 Z " stroke="#191919" stroke-width="0.35 px" style="stroke-width:0.35;stroke-miterlimit:4;stroke-dasharray:none;fill:#cccccc;fill-rule: evenodd "/>
<path id="Cut_f0001"  d="M 799.908999438 51.3805294435 L 799.908999438 51.3805294435 L 799.908999438 54.5546049083 L 799.908999438 54.5546049083 L 799.908999438 51.3805294435 Z " stroke="#191919" stroke-width="0.35 px" style="stroke-width:0.35;stroke-miterlimit:4;stroke-dasharray:none;fill:#cccccc;fill-rule: evenodd "/>
<path id="Cut_f0002"  d="M 812.615114478 54.5546049083 L 812.615114478 54.5546049083 L 812.615114478 51.3805294435 L 812.615114478 51.3805294435 L 812.615114478 54.5546049083 Z " stroke="#191919" stroke-width="0.35 px" style="stroke-width:0.35;stroke-miterlimit:4;stroke-dasharray:none;fill:#cccccc;fill-rule: evenodd "/>
<path id="Cut_f0003"  d="M 63.3161416328 -69.2452220852 L -85.9157003722 -69.2452220852 L -85.9157003722 -72.41929755 L -97.6346824152 -72.41929755 L -97.6346824152 -69.2452220852 L -103.982736196 -69.2452220852 L -103.982736196 51.3805294435 L -97.6346824152 51.3805294435 L -97.6346824152 54.5546049083 L -85.9142427529 54.5546049083 L -85.9142427529 51.3805294435 L 63.3181794368 51.3805294435 L 63.3181794368 54.5546049083 L 75.9903800015 54.5546049083 L 75.9903800015 51.3805294435 L 82.3384337827 51.3805294435 L 82.3384337827 67.2676536791 L 263.329805326 67.2676536791 L 263.329805326 51.3805294435 L 269.677859107 51.3805294435 L 269.677859107 54.5546049083 L 282.380679247 54.5546049083 L 282.380679247 51.3805294435 L 431.606753436 51.3805294435 L 431.606753436 54.5546049083 L 444.32861582 54.5546049083 L 444.32861582 51.3805294435 L 450.676669601 51.3805294435 L 450.676669601 67.2676536791 L 631.656862161 67.2676536791 L 631.656862161 51.3805294435 L 638.004915943 51.3805294435 L 638.004915943 54.5546049083 L 650.682436247 54.5546049083 L 650.682436247 51.3805294435 L 799.908999438 51.3805294435 L 799.908999438 54.5546049083 L 812.615114478 54.5546049083 L 812.615114478 51.3805294435 L 818.96316826 51.3805294435 L 818.96316826 67.2676536791 L 1001.51958557 67.2676536791 L 1001.51958557 -85.1323463209 L 818.957744409 -85.1323463209 L 818.957744409 -69.2452220852 L 812.609690628 -69.2452220852 L 812.609690628 -72.41929755 L 799.907541817 -72.41929755 L 799.907541817 -69.2452220852 L 650.690744627 -69.2452220852 L 650.690744627 -72.41929755 L 637.975108146 -72.41929755 L 637.975108146 -69.2452220852 L 631.627054365 -69.2452220852 L 631.627054365 -85.1323463209 L 450.633433244 -85.1323463209 L 450.633433244 -69.2452220852 L 444.285379463 -69.2452220852 L 444.285379463 -72.41929755 L 431.669617 -72.41929755 L 431.669617 -69.2452220852 L 282.378244628 -69.2452220852 L 282.378244628 -72.41929755 L 269.68949408 -72.41929755 L 269.68949408 -69.2452220852 L 263.341440298 -69.2452220852 L 263.341440298 -85.1323463209 L 82.5569625176 -85.1323463209 L 82.5569625176 -69.2452220852 L 76.2089087363 -69.2452220852 L 76.2089087363 -72.41929755 L 63.3161416328 -72.41929755 L 63.3161416328 -69.2452220852 Z M 667.495920123 2.7029826262 L 679.135568123 2.70298331998 M 679.135568123 2.70298331998 L 689.162994728 -3.08635333234 L 689.162995418 -14.6650278323 L 679.135569504 -20.45436568 L 667.495921454 -20.4543663738 M 667.495921115 -20.4543663738 L 657.46849477 -14.6650294974 L 657.468494274 -3.08635510941 L 667.495920123 2.7029826262 Z M 500.568671666 -19.5565483235 L 489.553046616 -19.5565489801 M 489.553046311 -19.5565489801 L 480.371665304 -14.2556765721 L 480.37166485 -3.6539311747 L 489.553045402 1.64694201994 L 500.568670402 1.64694267653 M 500.568670402 1.64694267653 L 509.750051646 -3.65392952622 L 509.750052278 -14.2556750262 L 500.568671666 -19.5565483235 Z " stroke="#191919" stroke-width="0.35 px" style="stroke-width:0.35;stroke-miterlimit:4;stroke-dasharray:none;fill:#cccccc;fill-rule: evenodd "/>
<path id="Cut_f0005"  d="M 650.682436247 51.3805294435 L 650.682436247 51.3805294435 L 799.908999438 51.3805294435 L 799.908999438 51.3805294435 L 650.682436247 51.3805294435 Z " stroke="#191919" stroke-width="0.35 px" style="stroke-width:0.35;stroke-miterlimit:4;stroke-dasharray:none;fill:#cccccc;fill-rule: evenodd "/>
<path id="Cut_f0006"  d="M 812.615114478 51.3805294435 L 812.615114478 51.3805294435 L 818.96316826 51.3805294435 L 818.96316826 51.3805294435 L 812.615114478 51.3805294435 Z " stroke="#191919" stroke-width="0.35 px" style="stroke-width:0.35;stroke-miterlimit:4;stroke-dasharray:none;fill:#cccccc;fill-rule: evenodd "/>
<path id="Cut_f0007"  d="M 650.682436247 54.5546049083 L 650.682436247 54.5546049083 L 650.682436247 51.3805294435 L 650.682436247 51.3805294435 L 650.682436247 54.5546049083 Z " stroke="#191919" stroke-width="0.35 px" style="stroke-width:0.35;stroke-miterlimit:4;stroke-dasharray:none;fill:#cccccc;fill-rule: evenodd "/>
<path id="Cut_f0008"  d="M 818.96316826 51.3805294435 L 818.96316826 51.3805294435 L 818.96316826 67.2676536791 L 818.96316826 67.2676536791 L 818.96316826 51.3805294435 Z " stroke="#191919" stroke-width="0.35 px" style="stroke-width:0.35;stroke-miterlimit:4;stroke-dasharray:none;fill:#cccccc;fill-rule: evenodd "/>
<path id="Cut_f0009"  d="M 638.004915943 54.5546049083 L 638.004915943 54.5546049083 L 650.682436247 54.5546049083 L 650.682436247 54.5546049083 L 638.004915943 54.5546049083 Z " stroke="#191919" stroke-width="0.35 px" style="stroke-width:0.35;stroke-miterlimit:4;stroke-dasharray:none;fill:#cccccc;fill-rule: evenodd "/>
<path id="Cut_f0010"  d="M 818.96316826 67.2676536791 L 818.96316826 67.2676536791 L 1001.51958557 67.2676536791 L 1001.51958557 67.2676536791 L 818.96316826 67.2676536791 Z " stroke="#191919" stroke-width="0.35 px" style="stroke-width:0.35;stroke-miterlimit:4;stroke-dasharray:none;fill:#cccccc;fill-rule: evenodd "/>
<path id="Cut_f0011"  d="M 638.004915943 51.3805294435 L 638.004915943 51.3805294435 L 638.004915943 54.5546049083 L 638.004915943 54.5546049083 L 638.004915943 51.3805294435 Z " stroke="#191919" stroke-width="0.35 px" style="stroke-width:0.35;stroke-miterlimit:4;stroke-dasharray:none;fill:#cccccc;fill-rule: evenodd "/>
<path id="Cut_f0012"  d="M 1001.51958557 67.2676536791 L 1001.51958557 67.2676536791 L 1001.51958557 -85.1323463209 L 1001.51958557 -85.1323463209 L 1001.51958557 67.2676536791 Z " stroke="#191919" stroke-width="0.35 px" style="stroke-width:0.35;stroke-miterlimit:4;stroke-dasharray:none;fill:#cccccc;fill-rule: evenodd "/>
<path id="Cut_f0013"  d="M 631.656862161 51.3805294435 L 631.656862161 51.3805294435 L 638.004915943 51.3805294435 L 638.004915943 51.3805294435 L 631.656862161 51.3805294435 Z " stroke="#191919" stroke-width="0.35 px" style="stroke-width:0.35;stroke-miterlimit:4;stroke-dasharray:none;fill:#cccccc;fill-rule: evenodd "/>
<path id="Cut_f0014"  d="M 1001.51958557 -85.1323463209 L 1001.51958557 -85.1323463209 L 818.957744409 -85.1323463209 L 818.957744409 -85.1323463209 L 1001.51958557 -85.1323463209 Z " stroke="#191919" stroke-width="0.35 px" style="stroke-width:0.35;stroke-miterlimit:4;stroke-dasharray:none;fill:#cccccc;fill-rule: evenodd "/>
<path id="Cut_f0015"  d="M 631.656862161 67.2676536791 L 631.656862161 67.2676536791 L 631.656862161 51.3805294435 L 631.656862161 51.3805294435 L 631.656862161 67.2676536791 Z " stroke="#191919" stroke-width="0.35 px" style="stroke-width:0.35;stroke-miterlimit:4;stroke-dasharray:none;fill:#cccccc;fill-rule: evenodd "/>
<path id="Cut_f0016"  d="M 818.957744409 -85.1323463209 L 818.957744409 -85.1323463209 L 818.957744409 -69.2452220852 L 818.957744409 -69.2452220852 L 818.957744409 -85.1323463209 Z " stroke="#191919" stroke-width="0.35 px" style="stroke-width:0.35;stroke-miterlimit:4;stroke-dasharray:none;fill:#cccccc;fill-rule: evenodd "/>
<path id="Cut_f0017"  d="M 450.676669601 67.2676536791 L 450.676669601 67.2676536791 L 631.656862161 67.2676536791 L 631.656862161 67.2676536791 L 450.676669601 67.2676536791 Z " stroke="#191919" stroke-width="0.35 px" style="stroke-width:0.35;stroke-miterlimit:4;stroke-dasharray:none;fill:#cccccc;fill-rule: evenodd "/>
<path id="Cut_f0018"  d="M 818.957744409 -69.2452220852 L 818.957744409 -69.2452220852 L 812.609690628 -69.2452220852 L 812.609690628 -69.2452220852 L 818.957744409 -69.2452220852 Z " stroke="#191919" stroke-width="0.35 px" style="stroke-width:0.35;stroke-miterlimit:4;stroke-dasharray:none;fill:#cccccc;fill-rule: evenodd "/>
<path id="Cut_f0019"  d="M 450.676669601 51.3805294435 L 450.676669601 51.3805294435 L 450.676669601 67.2676536791 L 450.676669601 67.2676536791 L 450.676669601 51.3805294435 Z " stroke="#191919" stroke-width="0.35 px" style="stroke-width:0.35;stroke-miterlimit:4;stroke-dasharray:none;fill:#cccccc;fill-rule: evenodd "/>
<path id="Cut_f0020"  d="M 812.609690628 -69.2452220852 L 812.609690628 -69.2452220852 L 812.609690628 -72.41929755 L 812.609690628 -72.41929755 L 812.609690628 -69.2452220852 Z " stroke="#191919" stroke-width="0.35 px" style="stroke-width:0.35;stroke-miterlimit:4;stroke-dasharray:none;fill:#cccccc;fill-rule: evenodd "/>
<path id="Cut_f0021"  d="M 444.32861582 51.3805294435 L 444.32861582 51.3805294435 L 450.676669601 51.3805294435 L 450.676669601 51.3805294435 L 444.32861582 51.3805294435 Z " stroke="#191919" stroke-width="0.35 px" style="stroke-width:0.35;stroke-miterlimit:4;stroke-dasharray:none;fill:#cccccc;fill-rule: evenodd "/>
<path id="Cut_f0022"  d="M 812.609690628 -72.41929755 L 812.609690628 -72.41929755 L 799.907541817 -72.41929755 L 799.907541817 -72.41929755 L 812.609690628 -72.41929755 Z " stroke="#191919" stroke-width="0.35 px" style="stroke-width:0.35;stroke-miterlimit:4;stroke-dasharray:none;fill:#cccccc;fill-rule: evenodd "/>
<path id="Cut_f0023"  d="M 444.32861582 54.5546049083 L 444.32861582 54.5546049083 L 444.32861582 51.3805294435 L 444.32861582 51.3805294435 L 444.32861582 54.5546049083 Z " stroke="#191919" stroke-width="0.35 px" style="stroke-width:0.35;stroke-miterlimit:4;stroke-dasharray:none;fill:#cccccc;fill-rule: evenodd "/>
<path id="Cut_f0024"  d="M 799.907541817 -72.41929755 L 799.907541817 -72.41929755 L 799.907541817 -69.2452220852 L 799.907541817 -69.2452220852 L 799.907541817 -72.41929755 Z " stroke="#191919" stroke-width="0.35 px" style="stroke-width:0.35;stroke-miterlimit:4;stroke-dasharray:none;fill:#cccccc;fill-rule: evenodd "/>
<path id="Cut_f0025"  d="M 431.606753436 54.5546049083 L 431.606753436 54.5546049083 L 444.32861582 54.5546049083 L 444.32861582 54.5546049083 L 431.606753436 54.5546049083 Z " stroke="#191919" stroke-width="0.35 px" style="stroke-width:0.35;stroke-miterlimit:4;stroke-dasharray:none;fill:#cccccc;fill-rule: evenodd "/>
<path id="Cut_f0026"  d="M 799.907541817 -69.2452220852 L 799.907541817 -69.2452220852 L 650.690744627 -69.2452220852 L 650.690744627 -69.2452220852 L 799.907541817 -69.2452220852 Z " stroke="#191919" stroke-width="0.35 px" style="stroke-width:0.35;stroke-miterlimit:4;stroke-dasharray:none;fill:#cccccc;fill-rule: evenodd "/>
<path id="Cut_f0027"  d="M 431.606753436 51.3805294435 L 431.606753436 51.3805294435 L 431.606753436 54.5546049083 L 431.606753436 54.5546049083 L 431.606753436 51.3805294435 Z " stroke="#191919" stroke-width="0.35 px" style="stroke-width:0.35;stroke-miterlimit:4;stroke-dasharray:none;fill:#cccccc;fill-rule: evenodd "/>
<path id="Cut_f0028"  d="M 650.690744627 -69.2452220852 L 650.690744627 -69.2452220852 L 650.690744627 -72.41929755 L 650.690744627 -72.41929755 L 650.690744627 -69.2452220852 Z " stroke="#191919" stroke-width="0.35 px" style="stroke-width:0.35;stroke-miterlimit:4;stroke-dasharray:none;fill:#cccccc;fill-rule: evenodd "/>
<path id="Cut_f0029"  d="M 282.380679247 51.3805294435 L 282.380679247 51.3805294435 L 431.606753436 51.3805294435 L 431.606753436 51.3805294435 L 282.380679247 51.3805294435 Z " stroke="#191919" stroke-width="0.35 px" style="stroke-width:0.35;stroke-miterlimit:4;stroke-dasharray:none;fill:#cccccc;fill-rule: evenodd "/>
<path id="Cut_f0030"  d="M 650.690744627 -72.41929755 L 650.690744627 -72.41929755 L 637.975108146 -72.41929755 L 637.975108146 -72.41929755 L 650.690744627 -72.41929755 Z " stroke="#191919" stroke-width="0.35 px" style="stroke-width:0.35;stroke-miterlimit:4;stroke-dasharray:none;fill:#cccccc;fill-rule: evenodd "/>
<path id="Cut_f0031"  d="M 282.380679247 54.5546049083 L 282.380679247 54.5546049083 L 282.380679247 51.3805294435 L 282.380679247 51.3805294435 L 282.380679247 54.5546049083 Z " stroke="#191919" stroke-width="0.35 px" style="stroke-width:0.35;stroke-miterlimit:4;stroke-dasharray:none;fill:#cccccc;fill-rule: evenodd "/>
<path id="Cut_f0032"  d="M 637.975108146 -72.41929755 L 637.975108146 -72.41929755 L 637.975108146 -69.2452220852 L 637.975108146 -69.2452220852 L 637.975108146 -72.41929755 Z " stroke="#191919" stroke-width="0.35 px" style="stroke-width:0.35;stroke-miterlimit:4;stroke-dasharray:none;fill:#cccccc;fill-rule: evenodd "/>
<path id="Cut_f0033"  d="M 269.677859107 54.5546049083 L 269.677859107 54.5546049083 L 282.380679247 54.5546049083 L 282.380679247 54.5546049083 L 269.677859107 54.5546049083 Z " stroke="#191919" stroke-width="0.35 px" style="stroke-width:0.35;stroke-miterlimit:4;stroke-dasharray:none;fill:#cccccc;fill-rule: evenodd "/>
<path id="Cut_f0034"  d="M 637.975108146 -69.2452220852 L 637.975108146 -69.2452220852 L 631.627054365 -69.2452220852 L 631.627054365 -69.2452220852 L 637.975108146 -69.2452220852 Z " stroke="#191919" stroke-width="0.35 px" style="stroke-width:0.35;stroke-miterlimit:4;stroke-dasharray:none;fill:#cccccc;fill-rule: evenodd "/>
<path id="Cut_f0035"  d="M 269.677859107 51.3805294435 L 269.677859107 51.3805294435 L 269.677859107 54.5546049083 L 269.677859107 54.5546049083 L 269.677859107 51.3805294435 Z " stroke="#191919" stroke-width="0.35 px" style="stroke-width:0.35;stroke-miterlimit:4;stroke-dasharray:none;fill:#cccccc;fill-rule: evenodd "/>
<path id="Cut_f0036"  d="M 631.627054365 -69.2452220852 L 631.627054365 -69.2452220852 L 631.627054365 -85.1323463209 L 631.627054365 -85.1323463209 L 631.627054365 -69.2452220852 Z " stroke="#191919" stroke-width="0.35 px" style="stroke-width:0.35;stroke-miterlimit:4;stroke-dasharray:none;fill:#cccccc;fill-rule: evenodd "/>
<path id="Cut_f0037"  d="M 263.329805326 51.3805294435 L 263.329805326 51.3805294435 L 269.677859107 51.3805294435 L 269.677859107 51.3805294435 L 263.329805326 51.3805294435 Z " stroke="#191919" stroke-width="0.35 px" style="stroke-width:0.35;stroke-miterlimit:4;stroke-dasharray:none;fill:#cccccc;fill-rule: evenodd "/>
<path id="Cut_f0038"  d="M 631.627054365 -85.1323463209 L 631.627054365 -85.1323463209 L 450.633433244 -85.1323463209 L 450.633433244 -85.1323463209 L 631.627054365 -85.1323463209 Z " stroke="#191919" stroke-width="0.35 px" style="stroke-width:0.35;stroke-miterlimit:4;stroke-dasharray:none;fill:#cccccc;fill-rule: evenodd "/>
<path id="Cut_f0039"  d="M 263.329805326 67.2676536791 L 263.329805326 67.2676536791 L 263.329805326 51.3805294435 L 263.329805326 51.3805294435 L 263.329805326 67.2676536791 Z " stroke="#191919" stroke-width="0.35 px" style="stroke-width:0.35;stroke-miterlimit:4;stroke-dasharray:none;fill:#cccccc;fill-rule: evenodd "/>
<path id="Cut_f0040"  d="M 450.633433244 -85.1323463209 L 450.633433244 -85.1323463209 L 450.633433244 -69.2452220852 L 450.633433244 -69.2452220852 L 450.633433244 -85.1323463209 Z " stroke="#191919" stroke-width="0.35 px" style="stroke-width:0.35;stroke-miterlimit:4;stroke-dasharray:none;fill:#cccccc;fill-rule: evenodd "/>
<path id="Cut_f0041"  d="M 82.3384337827 67.2676536791 L 82.3384337827 67.2676536791 L 263.329805326 67.2676536791 L 263.329805326 67.2676536791 L 82.3384337827 67.2676536791 Z " stroke="#191919" stroke-width="0.35 px" style="stroke-width:0.35;stroke-miterlimit:4;stroke-dasharray:none;fill:#cccccc;fill-rule: evenodd "/>
<path id="Cut_f0042"  d="M 450.633433244 -69.2452220852 L 450.633433244 -69.2452220852 L 444.285379463 -69.2452220852 L 444.285379463 -69.2452220852 L 450.633433244 -69.2452220852 Z " stroke="#191919" stroke-width="0.35 px" style="stroke-width:0.35;stroke-miterlimit:4;stroke-dasharray:none;fill:#cccccc;fill-rule: evenodd "/>
<path id="Cut_f0043"  d="M 82.3384337827 51.3805294435 L 82.3384337827 51.3805294435 L 82.3384337827 67.2676536791 L 82.3384337827 67.2676536791 L 82.3384337827 51.3805294435 Z " stroke="#191919" stroke-width="0.35 px" style="stroke-width:0.35;stroke-miterlimit:4;stroke-dasharray:none;fill:#cccccc;fill-rule: evenodd "/>
<path id="Cut_f0044"  d="M 444.285379463 -69.2452220852 L 444.285379463 -69.2452220852 L 444.285379463 -72.41929755 L 444.285379463 -72.41929755 L 444.285379463 -69.2452220852 Z " stroke="#191919" stroke-width="0.35 px" style="stroke-width:0.35;stroke-miterlimit:4;stroke-dasharray:none;fill:#cccccc;fill-rule: evenodd "/>
<path id="Cut_f0045"  d="M 75.9903800015 51.3805294435 L 75.9903800015 51.3805294435 L 82.3384337827 51.3805294435 L 82.3384337827 51.3805294435 L 75.9903800015 51.3805294435 Z " stroke="#191919" stroke-width="0.35 px" style="stroke-width:0.35;stroke-miterlimit:4;stroke-dasharray:none;fill:#cccccc;fill-rule: evenodd "/>
<path id="Cut_f0046"  d="M 444.285379463 -72.41929755 L 444.285379463 -72.41929755 L 431.669617 -72.41929755 L 431.669617 -72.41929755 L 444.285379463 -72.41929755 Z " stroke="#191919" stroke-width="0.35 px" style="stroke-width:0.35;stroke-miterlimit:4;stroke-dasharray:none;fill:#cccccc;fill-rule: evenodd "/>
<path id="Cut_f0047"  d="M 75.9903800015 54.5546049083 L 75.9903800015 54.5546049083 L 75.9903800015 51.3805294435 L 75.9903800015 51.3805294435 L 75.9903800015 54.5546049083 Z " stroke="#191919" stroke-width="0.35 px" style="stroke-width:0.35;stroke-miterlimit:4;stroke-dasharray:none;fill:#cccccc;fill-rule: evenodd "/>
<path id="Cut_f0048"  d="M 431.669617 -72.41929755 L 431.669617 -72.41929755 L 431.669617 -69.2452220852 L 431.669617 -69.2452220852 L 431.669617 -72.41929755 Z " stroke="#191919" stroke-width="0.35 px" style="stroke-width:0.35;stroke-miterlimit:4;stroke-dasharray:none;fill:#cccccc;fill-rule: evenodd "/>
<path id="Cut_f0049"  d="M 63.3181794368 54.5546049083 L 63.3181794368 54.5546049083 L 75.9903800015 54.5546049083 L 75.9903800015 54.5546049083 L 63.3181794368 54.5546049083 Z " stroke="#191919" stroke-width="0.35 px" style="stroke-width:0.35;stroke-miterlimit:4;stroke-dasharray:none;fill:#cccccc;fill-rule: evenodd "/>
<path id="Cut_f0050"  d="M 431.669617 -69.2452220852 L 431.669617 -69.2452220852 L 282.378244628 -69.2452220852 L 282.378244628 -69.2452220852 L 431.669617 -69.2452220852 Z " stroke="#191919" stroke-width="0.35 px" style="stroke-width:0.35;stroke-miterlimit:4;stroke-dasharray:none;fill:#cccccc;fill-rule: evenodd "/>
<path id="Cut_f0051"  d="M 63.3181794368 51.3805294435 L 63.3181794368 51.3805294435 L 63.3181794368 54.5546049083 L 63.3181794368 54.5546049083 L 63.3181794368 51.3805294435 Z " stroke="#191919" stroke-width="0.35 px" style="stroke-width:0.35;stroke-miterlimit:4;stroke-dasharray:none;fill:#cccccc;fill-rule: evenodd "/>
<path id="Cut_f0052"  d="M 282.378244628 -69.2452220852 L 282.378244628 -69.2452220852 L 282.378244628 -72.41929755 L 282.378244628 -72.41929755 L 282.378244628 -69.2452220852 Z " stroke="#191919" stroke-width="0.35 px" style="stroke-width:0.35;stroke-miterlimit:4;stroke-dasharray:none;fill:#cccccc;fill-rule: evenodd "/>
<path id="Cut_f0053"  d="M -85.9142427529 51.3805294435 L -85.9142427529 51.3805294435 L 63.3181794368 51.3805294435 L 63.3181794368 51.3805294435 L -85.9142427529 51.3805294435 Z " stroke="#191919" stroke-width="0.35 px" style="stroke-width:0.35;stroke-miterlimit:4;stroke-dasharray:none;fill:#cccccc;fill-rule: evenodd "/>
<path id="Cut_f0054"  d="M 282.378244628 -72.41929755 L 282.378244628 -72.41929755 L 269.68949408 -72.41929755 L 269.68949408 -72.41929755 L 282.378244628 -72.41929755 Z " stroke="#191919" stroke-width="0.35 px" style="stroke-width:0.35;stroke-miterlimit:4;stroke-dasharray:none;fill:#cccccc;fill-rule: evenodd "/>
<path id="Cut_f0055"  d="M -85.9142427529 54.5546049083 L -85.9142427529 54.5546049083 L -85.9142427529 51.3805294435 L -85.9142427529 51.3805294435 L -85.9142427529 54.5546049083 Z " stroke="#191919" stroke-width="0.35 px" style="stroke-width:0.35;stroke-miterlimit:4;stroke-dasharray:none;fill:#cccccc;fill-rule: evenodd "/>
<path id="Cut_f0056"  d="M 269.68949408 -72.41929755 L 269.68949408 -72.41929755 L 269.68949408 -69.2452220852 L 269.68949408 -69.2452220852 L 269.68949408 -72.41929755 Z " stroke="#191919" stroke-width="0.35 px" style="stroke-width:0.35;stroke-miterlimit:4;stroke-dasharray:none;fill:#cccccc;fill-rule: evenodd "/>
<path id="Cut_f0057"  d="M -97.6346824152 54.5546049083 L -97.6346824152 54.5546049083 L -85.9142427529 54.5546049083 L -85.9142427529 54.5546049083 L -97.6346824152 54.5546049083 Z " stroke="#191919" stroke-width="0.35 px" style="stroke-width:0.35;stroke-miterlimit:4;stroke-dasharray:none;fill:#cccccc;fill-rule: evenodd "/>
<path id="Cut_f0058"  d="M 269.68949408 -69.2452220852 L 269.68949408 -69.2452220852 L 263.341440298 -69.2452220852 L 263.341440298 -69.2452220852 L 269.68949408 -69.2452220852 Z " stroke="#191919" stroke-width="0.35 px" style="stroke-width:0.35;stroke-miterlimit:4;stroke-dasharray:none;fill:#cccccc;fill-rule: evenodd "/>
<path id="Cut_f0059"  d="M -97.6346824152 51.3805294435 L -97.6346824152 51.3805294435 L -97.6346824152 54.5546049083 L -97.6346824152 54.5546049083 L -97.6346824152 51.3805294435 Z " stroke="#191919" stroke-width="0.35 px" style="stroke-width:0.35;stroke-miterlimit:4;stroke-dasharray:none;fill:#cccccc;fill-rule: evenodd "/>
<path id="Cut_f0060"  d="M 263.341440298 -69.2452220852 L 263.341440298 -69.2452220852 L 263.341440298 -85.1323463209 L 263.341440298 -85.1323463209 L 263.341440298 -69.2452220852 Z " stroke="#191919" stroke-width="0.35 px" style="stroke-width:0.35;stroke-miterlimit:4;stroke-dasharray:none;fill:#cccccc;fill-rule: evenodd "/>
<path id="Cut_f0061"  d="M -103.982736196 51.3805294435 L -103.982736196 51.3805294435 L -97.6346824152 51.3805294435 L -97.6346824152 51.3805294435 L -103.982736196 51.3805294435 Z " stroke="#191919" stroke-width="0.35 px" style="stroke-width:0.35;stroke-miterlimit:4;stroke-dasharray:none;fill:#cccccc;fill-rule: evenodd "/>
<path id="Cut_f0062"  d="M 263.341440298 -85.1323463209 L 263.341440298 -85.1323463209 L 82.5569625176 -85.1323463209 L 82.5569625176 -85.1323463209 L 263.341440298 -85.1323463209 Z " stroke="#191919" stroke-width="0.35 px" style="stroke-width:0.35;stroke-miterlimit:4;stroke-dasharray:none;fill:#cccccc;fill-rule: evenodd "/>
<path id="Cut_f0063"  d="M -103.982736196 -69.2452220852 L -103.982736196 -69.2452220852 L -103.982736196 51.3805294435 L -103.982736196 51.3805294435 L -103.982736196 -69.2452220852 Z " stroke="#191919" stroke-width="0.35 px" style="stroke-width:0.35;stroke-miterlimit:4;stroke-dasharray:none;fill:#cccccc;fill-rule: evenodd "/>
<path id="Cut_f0064"  d="M 82.5569625176 -85.1323463209 L 82.5569625176 -85.1323463209 L 82.5569625176 -69.2452220852 L 82.5569625176 -69.2452220852 L 82.5569625176 -85.1323463209 Z " stroke="#191919" stroke-width="0.35 px" style="stroke-width:0.35;stroke-miterlimit:4;stroke-dasharray:none;fill:#cccccc;fill-rule: evenodd "/>
<path id="Cut_f0065"  d="M -97.6346824152 -69.2452220852 L -97.6346824152 -69.2452220852 L -103.982736196 -69.2452220852 L -103.982736196 -69.2452220852 L -97.6346824152 -69.2452220852 Z " stroke="#191919" stroke-width="0.35 px" style="stroke-width:0.35;stroke-miterlimit:4;stroke-dasharray:none;fill:#cccccc;fill-rule: evenodd "/>
<path id="Cut_f0066"  d="M 82.5569625176 -69.2452220852 L 82.5569625176 -69.2452220852 L 76.2089087363 -69.2452220852 L 76.2089087363 -69.2452220852 L 82.5569625176 -69.2452220852 Z " stroke="#191919" stroke-width="0.35 px" style="stroke-width:0.35;stroke-miterlimit:4;stroke-dasharray:none;fill:#cccccc;fill-rule: evenodd "/>
<path id="Cut_f0067"  d="M -97.6346824152 -72.41929755 L -97.6346824152 -72.41929755 L -97.6346824152 -69.2452220852 L -97.6346824152 -69.2452220852 L -97.6346824152 -72.41929755 Z " stroke="#191919" stroke-width="0.35 px" style="stroke-width:0.35;stroke-miterlimit:4;stroke-dasharray:none;fill:#cccccc;fill-rule: evenodd "/>
<path id="Cut_f0068"  d="M 76.2089087363 -69.2452220852 L 76.2089087363 -69.2452220852 L 76.2089087363 -72.41929755 L 76.2089087363 -72.41929755 L 76.2089087363 -69.2452220852 Z " stroke="#191919" stroke-width="0.35 px" style="stroke-width:0.35;stroke-miterlimit:4;stroke-dasharray:none;fill:#cccccc;fill-rule: evenodd "/>
<path id="Cut_f0069"  d="M -85.9157003722 -72.41929755 L -85.9157003722 -72.41929755 L -97.6346824152 -72.41929755 L -97.6346824152 -72.41929755 L -85.9157003722 -72.41929755 Z " stroke="#191919" stroke-width="0.35 px" style="stroke-width:0.35;stroke-miterlimit:4;stroke-dasharray:none;fill:#cccccc;fill-rule: evenodd "/>
<path id="Cut_f0070"  d="M 76.2089087363 -72.41929755 L 76.2089087363 -72.41929755 L 63.3161416328 -72.41929755 L 63.3161416328 -72.41929755 L 76.2089087363 -72.41929755 Z " stroke="#191919" stroke-width="0.35 px" style="stroke-width:0.35;stroke-miterlimit:4;stroke-dasharray:none;fill:#cccccc;fill-rule: evenodd "/>
<path id="Cut_f0071"  d="M -85.9157003722 -69.2452220852 L -85.9157003722 -69.2452220852 L -85.9157003722 -72.41929755 L -85.9157003722 -72.41929755 L -85.9157003722 -69.2452220852 Z " stroke="#191919" stroke-width="0.35 px" style="stroke-width:0.35;stroke-miterlimit:4;stroke-dasharray:none;fill:#cccccc;fill-rule: evenodd "/>
<path id="Cut_f0072"  d="M 63.3161416328 -72.41929755 L 63.3161416328 -72.41929755 L 63.3161416328 -69.2452220852 L 63.3161416328 -69.2452220852 L 63.3161416328 -72.41929755 Z " stroke="#191919" stroke-width="0.35 px" style="stroke-width:0.35;stroke-miterlimit:4;stroke-dasharray:none;fill:#cccccc;fill-rule: evenodd "/>
<path id="Cut_f0073"  d="M 63.3161416328 -69.2452220852 L 63.3161416328 -69.2452220852 L -85.9157003722 -69.2452220852 L -85.9157003722 -69.2452220852 L 63.3161416328 -69.2452220852 Z " stroke="#191919" stroke-width="0.35 px" style="stroke-width:0.35;stroke-miterlimit:4;stroke-dasharray:none;fill:#cccccc;fill-rule: evenodd "/>
<path id="Cut_f0074"  d="M 679.135569504 -20.45436568 L 679.135569504 -20.45436568 A 11.5787 11.5787 -90 0 1 679.136 2.70298L 679.135568123 2.70298331998 M 679.135568123 2.70298331998 L 689.162994728 -3.08635333234 L 689.162995418 -14.6650278323 L 679.135569504 -20.45436568 Z " stroke="#191919" stroke-width="0.35 px" style="stroke-width:0.35;stroke-miterlimit:4;stroke-dasharray:none;fill:#cccccc;fill-rule: evenodd "/>
<path id="Cut_f0075"  d="M 679.135568123 2.70298331998 L 679.135568123 2.70298331998 L 667.495920123 2.7029826262 L 667.495920123 2.7029826262 L 679.135568123 2.70298331998 Z " stroke="#191919" stroke-width="0.35 px" style="stroke-width:0.35;stroke-miterlimit:4;stroke-dasharray:none;fill:#cccccc;fill-rule: evenodd "/>
<path id="Cut_f0076"  d="M 667.495920123 2.7029826262 L 667.495920123 2.7029826262 A 11.5787 11.5787 -90 0 1 667.496 -20.4544L 667.495921454 -20.4543663738 M 667.495921115 -20.4543663738 L 657.46849477 -14.6650294974 L 657.468494274 -3.08635510941 L 667.495920123 2.7029826262 Z " stroke="#191919" stroke-width="0.35 px" style="stroke-width:0.35;stroke-miterlimit:4;stroke-dasharray:none;fill:#cccccc;fill-rule: evenodd "/>
<path id="Cut_f0077"  d="M 667.495921454 -20.4543663738 L 667.495921454 -20.4543663738 L 679.135569504 -20.45436568 L 679.135569504 -20.45436568 L 667.495921454 -20.4543663738 Z " stroke="#191919" stroke-width="0.35 px" style="stroke-width:0.35;stroke-miterlimit:4;stroke-dasharray:none;fill:#cccccc;fill-rule: evenodd "/>
<path id="Cut_f0078"  d="M 489.553045402 1.64694201994 L 489.553045402 1.64694201994 A 10.6017 10.6017 -90 0 1 489.553 -19.5565L 489.553046616 -19.5565489801 M 489.553046311 -19.5565489801 L 480.371665304 -14.2556765721 L 480.37166485 -3.6539311747 L 489.553045402 1.64694201994 Z " stroke="#191919" stroke-width="0.35 px" style="stroke-width:0.35;stroke-miterlimit:4;stroke-dasharray:none;fill:#cccccc;fill-rule: evenodd "/>
<path id="Cut_f0079"  d="M 489.553046616 -19.5565489801 L 489.553046616 -19.5565489801 L 500.568671666 -19.5565483235 L 500.568671666 -19.5565483235 L 489.553046616 -19.5565489801 Z " stroke="#191919" stroke-width="0.35 px" style="stroke-width:0.35;stroke-miterlimit:4;stroke-dasharray:none;fill:#cccccc;fill-rule: evenodd "/>
<path id="Cut_f0080"  d="M 500.568671666 -19.5565483235 L 500.568671666 -19.5565483235 A 10.6017 10.6017 -90 1 1 500.569 1.64694L 500.568670402 1.64694267653 M 500.568670402 1.64694267653 L 509.750051646 -3.65392952622 L 509.750052278 -14.2556750262 L 500.568671666 -19.5565483235 Z " stroke="#191919" stroke-width="0.35 px" style="stroke-width:0.35;stroke-miterlimit:4;stroke-dasharray:none;fill:#cccccc;fill-rule: evenodd "/>
<path id="Cut_f0081"  d="M 500.568670402 1.64694267653 L 500.568670402 1.64694267653 L 489.553045402 1.64694201994 L 489.553045402 1.64694201994 L 500.568670402 1.64694267653 Z " stroke="#191919" stroke-width="0.35 px" style="stroke-width:0.35;stroke-miterlimit:4;stroke-dasharray:none;fill:#cccccc;fill-rule: evenodd "/>
<title>Cut</title>
</g>
</svg>