  0
SECTION
  2
HEADER
  9
$ACADVER
  1
AC1009
  9
$INSBASE
 10
0.0
 20
0.0
 30
0.0
  9
$EXTMIN
 10
0.0
 20
0.0
 30
0.0
  9
$EXTMAX
 10
0.0
 20
0.0
 30
0.0
  0
ENDSEC
  0
SECTION
  2
TABLES
  0
TABLE
  2
VPORT
 70
0
  0
ENDTAB
  0
TABLE
  2
LTYPE
 70
1
  0
LTYPE
  2
CONTINUOUS
 70
0
  3
Solid line
 72
65
 73
0
 40
0.0
  0
ENDTAB
  0
TABLE
  2
LAYER
 70
1
  0
LAYER
  2
0
 70
64
 62
7
  6
continuous
  0
ENDTAB
  0
TABLE
  2
STYLE
 70
1
  0
STYLE
  2
STANDARD
 70
0
 40
0
 41
1.0
 50
0.0
 71
0
 42
1
 3
ARIAL.TTF
 4

  0
ENDTAB
  0
TABLE
  2
VIEW
 70
0
  0
ENDTAB
  0
ENDSEC
  0
SECTION
  2
BLOCKS
  0
BLOCK
  8
0
  2
CUT
 70
0
 10
0.0
 20
0.0
 30
0.0
  3
CUT
  0
LINE
  8
0
 62
0
 10
799.908999438
 20
54.5546049083
 30
0.0
 11
812.615114478
 21
54.5546049083
 31
0.0
  0
LINE
  8
0
 62
0
 10
799.908999438
 20
51.3805294435
 30
0.0
 11
799.908999438
 21
54.5546049083
 31
0.0
  0
LINE
  8
0
 62
0
 10
812.615114478
 20
54.5546049083
 30
0.0
 11
812.615114478
 21
51.3805294435
 31
0.0
  0
LINE
  8
0
 62
0
 10
650.682436247
 20
51.3805294435
 30
0.0
 11
799.908999438
 21
51.3805294435
 31
0.0
  0
LINE
  8
0
 62
0
 10
812.615114478
 20
51.3805294435
 30
0.0
 11
818.96316826
 21
51.3805294435
 31
0.0
  0
LINE
  8
0
 62
0
 10
650.682436247
 20
54.5546049083
 30
0.0
 11
650.682436247
 21
51.3805294435
 31
0.0
  0
LINE
  8
0
 62
0
 10
818.96316826
 20
51.3805294435
 30
0.0
 11
818.96316826
 21
67.2676536791
 31
0.0
  0
LINE
  8
0
 62
0
 10
638.004915943
 20
54.5546049083
 30
0.0
 11
650.682436247
 21
54.5546049083
 31
0.0
  0
LINE
  8
0
 62
0
 10
818.96316826
 20
67.2676536791
 30
0.0
 11
1001.51958557
 21
67.2676536791
 31
0.0
  0
LINE
  8
0
 62
0
 10
638.004915943
 20
51.3805294435
 30
0.0
 11
638.004915943
 21
54.5546049083
 31
0.0
  0
LINE
  8
0
 62
0
 10
1001.51958557
 20
67.2676536791
 30
0.0
 11
1001.51958557
 21
-85.1323463209
 31
0.0
  0
LINE
  8
0
 62
0
 10
631.656862161
 20
51.3805294435
 30
0.0
 11
638.004915943
 21
51.3805294435
 31
0.0
  0
LINE
  8
0
 62
0
 10
1001.51958557
 20
-85.1323463209
 30
0.0
 11
818.957744409
 21
-85.1323463209
 31
0.0
  0
LINE
  8
0
 62
0
 10
631.656862161
 20
67.2676536791
 30
0.0
 11
631.656862161
 21
51.3805294435
 31
0.0
  0
LINE
  8
0
 62
0
 10
818.957744409
 20
-85.1323463209
 30
0.0
 11
818.957744409
 21
-69.2452220852
 31
0.0
  0
LINE
  8
0
 62
0
 10
450.676669601
 20
67.2676536791
 30
0.0
 11
631.656862161
 21
67.2676536791
 31
0.0
  0
LINE
  8
0
 62
0
 10
818.957744409
 20
-69.2452220852
 30
0.0
 11
812.609690628
 21
-69.2452220852
 31
0.0
  0
LINE
  8
0
 62
0
 10
450.676669601
 20
51.3805294435
 30
0.0
 11
450.676669601
 21
67.2676536791
 31
0.0
  0
LINE
  8
0
 62
0
 10
812.609690628
 20
-69.2452220852
 30
0.0
 11
812.609690628
 21
-72.41929755
 31
0.0
  0
LINE
  8
0
 62
0
 10
444.32861582
 20
51.3805294435
 30
0.0
 11
450.676669601
 21
51.3805294435
 31
0.0
  0
LINE
  8
0
 62
0
 10
812.609690628
 20
-72.41929755
 30
0.0
 11
799.907541817
 21
-72.41929755
 31
0.0
  0
LINE
  8
0
 62
0
 10
444.32861582
 20
54.5546049083
 30
0.0
 11
444.32861582
 21
51.3805294435
 31
0.0
  0
LINE
  8
0
 62
0
 10
799.907541817
 20
-72.41929755
 30
0.0
 11
799.907541817
 21
-69.2452220852
 31
0.0
  0
LINE
  8
0
 62
0
 10
431.606753436
 20
54.5546049083
 30
0.0
 11
444.32861582
 21
54.5546049083
 31
0.0
  0
LINE
  8
0
 62
0
 10
799.907541817
 20
-69.2452220852
 30
0.0
 11
650.690744627
 21
-69.2452220852
 31
0.0
  0
LINE
  8
0
 62
0
 10
431.606753436
 20
51.3805294435
 30
0.0
 11
431.606753436
 21
54.5546049083
 31
0.0
  0
LINE
  8
0
 62
0
 10
650.690744627
 20
-69.2452220852
 30
0.0
 11
650.690744627
 21
-72.41929755
 31
0.0
  0
LINE
  8
0
 62
0
 10
282.380679247
 20
51.3805294435
 30
0.0
 11
431.606753436
 21
51.3805294435
 31
0.0
  0
LINE
  8
0
 62
0
 10
650.690744627
 20
-72.41929755
 30
0.0
 11
637.975108146
 21
-72.41929755
 31
0.0
  0
LINE
  8
0
 62
0
 10
282.380679247
 20
54.5546049083
 30
0.0
 11
282.380679247
 21
51.3805294435
 31
0.0
  0
LINE
  8
0
 62
0
 10
637.975108146
 20
-72.41929755
 30
0.0
 11
637.975108146
 21
-69.2452220852
 31
0.0
  0
LINE
  8
0
 62
0
 10
269.677859107
 20
54.5546049083
 30
0.0
 11
282.380679247
 21
54.5546049083
 31
0.0
  0
LINE
  8
0
 62
0
 10
637.975108146
 20
-69.2452220852
 30
0.0
 11
631.627054365
 21
-69.2452220852
 31
0.0
  0
LINE
  8
0
 62
0
 10
269.677859107
 20
51.3805294435
 30
0.0
 11
269.677859107
 21
54.5546049083
 31
0.0
  0
LINE
  8
0
 62
0
 10
631.627054365
 20
-69.2452220852
 30
0.0
 11
631.627054365
 21
-85.1323463209
 31
0.0
  0
LINE
  8
0
 62
0
 10
263.329805326
 20
51.3805294435
 30
0.0
 11
269.677859107
 21
51.3805294435
 31
0.0
  0
LINE
  8
0
 62
0
 10
631.627054365
 20
-85.1323463209
 30
0.0
 11
450.633433244
 21
-85.1323463209
 31
0.0
  0
LINE
  8
0
 62
0
 10
263.329805326
 20
67.2676536791
 30
0.0
 11
263.329805326
 21
51.3805294435
 31
0.0
  0
LINE
  8
0
 62
0
 10
450.633433244
 20
-85.1323463209
 30
0.0
 11
450.633433244
 21
-69.2452220852
 31
0.0
  0
LINE
  8
0
 62
0
 10
82.3384337827
 20
67.2676536791
 30
0.0
 11
263.329805326
 21
67.2676536791
 31
0.0
  0
LINE
  8
0
 62
0
 10
450.633433244
 20
-69.2452220852
 30
0.0
 11
444.285379463
 21
-69.2452220852
 31
0.0
  0
LINE
  8
0
 62
0
 10
82.3384337827
 20
51.3805294435
 30
0.0
 11
82.3384337827
 21
67.2676536791
 31
0.0
  0
LINE
  8
0
 62
0
 10
444.285379463
 20
-69.2452220852
 30
0.0
 11
444.285379463
 21
-72.41929755
 31
0.0
  0
LINE
  8
0
 62
0
 10
75.9903800015
 20
51.3805294435
 30
0.0
 11
82.3384337827
 21
51.3805294435
 31
0.0
  0
LINE
  8
0
 62
0
 10
444.285379463
 20
-72.41929755
 30
0.0
 11
431.669617
 21
-72.41929755
 31
0.0
  0
LINE
  8
0
 62
0
 10
75.9903800015
 20
54.5546049083
 30
0.0
 11
75.9903800015
 21
51.3805294435
 31
0.0
  0
LINE
  8
0
 62
0
 10
431.669617
 20
-72.41929755
 30
0.0
 11
431.669617
 21
-69.2452220852
 31
0.0
  0
LINE
  8
0
 62
0
 10
63.3181794368
 20
54.5546049083
 30
0.0
 11
75.9903800015
 21
54.5546049083
 31
0.0
  0
LINE
  8
0
 62
0
 10
431.669617
 20
-69.2452220852
 30
0.0
 11
282.378244628
 21
-69.2452220852
 31
0.0
  0
LINE
  8
0
 62
0
 10
63.3181794368
 20
51.3805294435
 30
0.0
 11
63.3181794368
 21
54.5546049083
 31
0.0
  0
LINE
  8
0
 62
0
 10
282.378244628
 20
-69.2452220852
 30
0.0
 11
282.378244628
 21
-72.41929755
 31
0.0
  0
LINE
  8
0
 62
0
 10
-85.9142427529
 20
51.3805294435
 30
0.0
 11
63.3181794368
 21
51.3805294435
 31
0.0
  0
LINE
  8
0
 62
0
 10
282.378244628
 20
-72.41929755
 30
0.0
 11
269.68949408
 21
-72.41929755
 31
0.0
  0
LINE
  8
0
 62
0
 10
-85.9142427529
 20
54.5546049083
 30
0.0
 11
-85.9142427529
 21
51.3805294435
 31
0.0
  0
LINE
  8
0
 62
0
 10
269.68949408
 20
-72.41929755
 30
0.0
 11
269.68949408
 21
-69.2452220852
 31
0.0
  0
LINE
  8
0
 62
0
 10
-97.6346824152
 20
54.5546049083
 30
0.0
 11
-85.9142427529
 21
54.5546049083
 31
0.0
  0
LINE
  8
0
 62
0
 10
269.68949408
 20
-69.2452220852
 30
0.0
 11
263.341440298
 21
-69.2452220852
 31
0.0
  0
LINE
  8
0
 62
0
 10
-97.6346824152
 20
51.3805294435
 30
0.0
 11
-97.6346824152
 21
54.5546049083
 31
0.0
  0
LINE
  8
0
 62
0
 10
263.341440298
 20
-69.2452220852
 30
0.0
 11
263.341440298
 21
-85.1323463209
 31
0.0
  0
LINE
  8
0
 62
0
 10
-103.982736196
 20
51.3805294435
 30
0.0
 11
-97.6346824152
 21
51.3805294435
 31
0.0
  0
LINE
  8
0
 62
0
 10
263.341440298
 20
-85.1323463209
 30
0.0
 11
82.5569625176
 21
-85.1323463209
 31
0.0
  0
LINE
  8
0
 62
0
 10
-103.982736196
 20
-69.2452220852
 30
0.0
 11
-103.982736196
 21
51.3805294435
 31
0.0
  0
LINE
  8
0
 62
0
 10
82.5569625176
 20
-85.1323463209
 30
0.0
 11
82.5569625176
 21
-69.2452220852
 31
0.0
  0
LINE
  8
0
 62
0
 10
-97.6346824152
 20
-69.2452220852
 30
0.0
 11
-103.982736196
 21
-69.2452220852
 31
0.0
  0
LINE
  8
0
 62
0
 10
82.5569625176
 20
-69.2452220852
 30
0.0
 11
76.2089087363
 21
-69.2452220852
 31
0.0
  0
LINE
  8
0
 62
0
 10
-97.6346824152
 20
-72.41929755
 30
0.0
 11
-97.6346824152
 21
-69.2452220852
 31
0.0
  0
LINE
  8
0
 62
0
 10
76.2089087363
 20
-69.2452220852
 30
0.0
 11
76.2089087363
 21
-72.41929755
 31
0.0
  0
LINE
  8
0
 62
0
 10
-85.9157003722
 20
-72.41929755
 30
0.0
 11
-97.6346824152
 21
-72.41929755
 31
0.0
  0
LINE
  8
0
 62
0
 10
76.2089087363
 20
-72.41929755
 30
0.0
 11
63.3161416328
 21
-72.41929755
 31
0.0
  0
LINE
  8
0
 62
0
 10
-85.9157003722
 20
-69.2452220852
 30
0.0
 11
-85.9157003722
 21
-72.41929755
 31
0.0
  0
LINE
  8
0
 62
0
 10
63.3161416328
 20
-72.41929755
 30
0.0
 11
63.3161416328
 21
-69.2452220852
 31
0.0
  0
LINE
  8
0
 62
0
 10
63.3161416328
 20
-69.2452220852
 30
0.0
 11
-85.9157003722
 21
-69.2452220852
 31
0.0
  0
POLYLINE
  8
0
 62
0
 70
0
 66
1
 10
0.0
 20
0.0
 30
0.0
  0
VERTEX
  8
0
 10
679.135568123
 20
2.70298331998
 30
0.0
  0
VERTEX
  8
0
 10
683.566535076
 20
1.82160946825
 30
0.0
  0
VERTEX
  8
0
 10
687.322927582
 20
-0.688331435914
 30
0.0
  0
VERTEX
  8
0
 10
689.832868934
 20
-4.44472364251
 30
0.0
  0
VERTEX
  8
0
 10
690.714243313
 20
-8.87569048988
 30
0.0
  0
VERTEX
  8
0
 10
689.832869462
 20
-13.3066574423
 30
0.0
  0
VERTEX
  8
0
 10
687.322928558
 20
-17.0630499481
 30
0.0
  0
VERTEX
  8
0
 10
683.566536351
 20
-19.5729913001
 30
0.0
  0
VERTEX
  8
0
 10
679.135569504
 20
-20.45436568
 30
0.0
  0
SEQEND
  8
0
  0
LINE
  8
0
 62
0
 10
667.495920123
 20
2.7029826262
 30
0.0
 11
679.135568123
 21
2.70298331998
 31
0.0
  0
POLYLINE
  8
0
 62
0
 70
0
 66
1
 10
0.0
 20
0.0
 30
0.0
  0
VERTEX
  8
0
 10
667.495921115
 20
-20.4543663738
 30
0.0
  0
VERTEX
  8
0
 10
663.064954237
 20
-19.5729923921
 30
0.0
  0
VERTEX
  8
0
 10
659.30856184
 20
-17.063051412
 30
0.0
  0
VERTEX
  8
0
 10
656.798620601
 20
-13.3066591871
 30
0.0
  0
VERTEX
  8
0
 10
655.917246313
 20
-8.87569236984
 30
0.0
  0
VERTEX
  8
0
 10
656.798620221
 20
-4.44472547701
 30
0.0
  0
VERTEX
  8
0
 10
659.308561138
 20
-0.688333037075
 30
0.0
  0
VERTEX
  8
0
 10
663.064953321
 20
1.82160826483
 30
0.0
  0
VERTEX
  8
0
 10
667.495920123
 20
2.7029826262
 30
0.0
  0
SEQEND
  8
0
  0
LINE
  8
0
 62
0
 10
679.135569504
 20
-20.45436568
 30
0.0
 11
667.495921504
 21
-20.4543663738
 31
0.0
  0
LINE
  8
0
 62
0
 10
500.568671666
 20
-19.5565483235
 30
0.0
 11
489.553046666
 21
-19.5565489801
 31
0.0
  0
POLYLINE
  8
0
 62
0
 70
0
 66
1
 10
0.0
 20
0.0
 30
0.0
  0
VERTEX
  8
0
 10
500.568670402
 20
1.64694267653
 30
0.0
  0
VERTEX
  8
0
 10
505.168595444
 20
0.597040091626
 30
0.0
  0
VERTEX
  8
0
 10
508.857449041
 20
-2.34472212827
 30
0.0
  0
VERTEX
  8
0
 10
510.9046085
 20
-6.59569189718
 30
0.0
  0
VERTEX
  8
0
 10
510.904608781
 20
-11.3139125176
 30
0.0
  0
VERTEX
  8
0
 10
508.857449829
 20
-15.5648825306
 30
0.0
  0
VERTEX
  8
0
 10
505.168596582
 20
-18.5066451902
 30
0.0
  0
VERTEX
  8
0
 10
500.568671666
 20
-19.5565483235
 30
0.0
  0
SEQEND
  8
0
  0
LINE
  8
0
 62
0
 10
489.553045402
 20
1.64694201994
 30
0.0
 11
500.568670402
 21
1.64694267653
 31
0.0
  0
POLYLINE
  8
0
 62
0
 70
0
 66
1
 10
0.0
 20
0.0
 30
0.0
  0
VERTEX
  8
0
 10
489.553046311
 20
-19.5565489801
 30
0.0
  0
VERTEX
  8
0
 10
484.95312135
 20
-18.506646263
 30
0.0
  0
VERTEX
  8
0
 10
481.264267869
 20
-15.5648839768
 30
0.0
  0
VERTEX
  8
0
 10
479.217108524
 20
-11.3139142083
 30
0.0
  0
VERTEX
  8
0
 10
479.217108322
 20
-6.59569363739
 30
0.0
  0
VERTEX
  8
0
 10
481.264267303
 20
-2.34472369356
 30
0.0
  0
VERTEX
  8
0
 10
484.953120532
 20
0.59703890872
 30
0.0
  0
VERTEX
  8
0
 10
489.553045402
 20
1.64694201994
 30
0.0
  0
SEQEND
  8
0
  0
ENDBLK
  0
ENDSEC
  0
SECTION
  2
ENTITIES
  0
INSERT
  2
CUT
  8
0
 62
0
 10
0.0
 20
0.0
 30
0.0
  0
ENDSEC
  0
EOF
